<svg width="256.44" height="256.44" version="1.1" viewBox="0 0 67.85 67.851" xmlns="http://www.w3.org/2000/svg">
 <g transform="translate(-18.992 -18.991)">
  <g transform="matrix(.35278 0 0 -.35278 -491.12 107.85)">
   <path d="m1446 155.71c0 53.11 43.054 96.166 96.161 96.166 53.12 0 96.17-43.056 96.17-96.166 0-53.112-43.05-96.167-96.17-96.167-53.107 0-96.161 43.055-96.161 96.167" fill="#07484a"/>
   <g fill="none" stroke="#fff" stroke-linecap="round" stroke-linejoin="round" stroke-miterlimit="10" stroke-width="3.1277">
    <path d="m1512.4 200.1s-5.49-38.084 34.07-50.39c3.32 41.301-34.07 50.39-34.07 50.39z"/>
    <path d="m1579.7 90.298s30.55 13.907 34.88 55.891c4.32 41.984-22.75 61.829-22.75 61.829s-30.55-13.906-34.88-55.891c-0.6-5.883-0.59-11.331-0.13-16.351"/>
    <path d="m1588.6 95.852s-7.06 32.817-47.15 46.013c-40.088 13.196-65.259-9.014-65.259-9.014s7.058-32.817 47.149-46.012c40.09-13.196 65.26 9.0131 65.26 9.0131z"/>
    <path d="m1587.6 96.495-0.83 67.861"/>
    <path d="m1586 97.322-68.69 20.69"/>
    <path d="m1470.4 142.41c-0.77 4.257-1.172 8.642-1.172 13.122 0 21.717 9.452 41.226 24.467 54.639"/>
    <path d="m1506.4 219.29c10.65 6.037 22.96 9.485 36.07 9.485 15.26 0 29.42-4.662 41.14-12.637"/>
   </g>
   <path d="m1446 155.71c0 53.11 43.054 96.166 96.161 96.166 53.12 0 96.17-43.056 96.17-96.166 0-53.112-43.05-96.167-96.17-96.167-53.107 0-96.161 43.055-96.161 96.167" fill="#07484a"/>
   <g fill="none" stroke="#fff" stroke-linecap="round" stroke-linejoin="round" stroke-miterlimit="10" stroke-width="3.1277">
    <path d="m1512.4 200.1s-5.49-38.084 34.07-50.39c3.32 41.301-34.07 50.39-34.07 50.39z"/>
    <path d="m1579.7 90.298s30.55 13.907 34.88 55.891c4.32 41.984-22.75 61.829-22.75 61.829s-30.55-13.906-34.88-55.891c-0.6-5.883-0.59-11.331-0.13-16.351"/>
    <path d="m1588.6 95.852s-7.06 32.817-47.15 46.013c-40.088 13.196-65.259-9.014-65.259-9.014s7.058-32.817 47.149-46.012c40.09-13.196 65.26 9.0131 65.26 9.0131z"/>
    <path d="m1587.6 96.495-0.83 67.861"/>
    <path d="m1586 97.322-68.69 20.69"/>
    <path d="m1470.4 142.41c-0.77 4.257-1.172 8.642-1.172 13.122 0 21.717 9.452 41.226 24.467 54.639"/>
    <path d="m1506.4 219.29c10.65 6.037 22.96 9.485 36.07 9.485 15.26 0 29.42-4.662 41.14-12.637"/>
   </g>
  </g>
 </g>
</svg>
